<?xml version="1.0" encoding="UTF-8" standalone="no"?>
<svg
   xmlns:dc="http://purl.org/dc/elements/1.1/"
   xmlns:cc="http://creativecommons.org/ns#"
   xmlns:rdf="http://www.w3.org/1999/02/22-rdf-syntax-ns#"
   xmlns:svg="http://www.w3.org/2000/svg"
   xmlns="http://www.w3.org/2000/svg"
   xmlns:sodipodi="http://sodipodi.sourceforge.net/DTD/sodipodi-0.dtd"
   xmlns:inkscape="http://www.inkscape.org/namespaces/inkscape"
   version="1.1"
   id="svg2"
   xml:space="preserve"
   width="1333.3333"
   height="259.78668"
   viewBox="0 0 1333.3333 259.78668"
   sodipodi:docname="Sequoia_logo.combine_aws_inverted_RGB 2.eps"><metadata
     id="metadata8"><rdf:RDF><cc:Work
         rdf:about=""><dc:format>image/svg+xml</dc:format><dc:type
           rdf:resource="http://purl.org/dc/dcmitype/StillImage" /></cc:Work></rdf:RDF></metadata><defs
     id="defs6" /><sodipodi:namedview
     pagecolor="#ffffff"
     bordercolor="#666666"
     borderopacity="1"
     objecttolerance="10"
     gridtolerance="10"
     guidetolerance="10"
     inkscape:pageopacity="0"
     inkscape:pageshadow="2"
     inkscape:window-width="640"
     inkscape:window-height="480"
     id="namedview4" /><g
     id="g10"
     inkscape:groupmode="layer"
     inkscape:label="ink_ext_XXXXXX"
     transform="matrix(1.3333333,0,0,-1.3333333,0,259.78667)"><g
       id="g12"
       transform="scale(0.1)"><path
         d="M 2599.63,1265.73 V 882.352 c 0,-125.551 -55.99,-188.313 -167.99,-188.313 -4.6,0 -22.49,0 -27.09,0 -112,0 -167.99,62.762 -167.99,188.313 v 383.378 h -92.12 V 841.699 c 0,-47.879 11.05,-89.398 33.19,-124.64 22.12,-35.207 51.92,-61.86 89.41,-79.918 37.47,-18.059 78.34,-27.102 122.6,-27.102 9.74,0 47.18,0 56.9,0 44.27,0 85.14,9.043 122.61,27.102 37.49,18.058 67.29,44.711 89.41,79.918 22.14,35.242 33.19,76.761 33.19,124.64 v 424.031 h -92.12"
         style="fill:#ffffff;fill-opacity:1;fill-rule:nonzero;stroke:none"
         id="path14" /><path
         d="M 106.348,649.328 C 59.8203,675.512 24.3867,712.539 0,760.422 L 82.6367,801.07 C 116.039,729.711 181.531,694.039 279.078,694.039 c 46.945,0 85.789,8.57 116.508,25.742 30.691,17.149 46.059,43.797 46.059,79.93 0,37.019 -12.426,64.559 -37.254,82.641 -24.856,18.046 -68.414,29.796 -130.735,35.218 -86.703,7.219 -148.808,26.629 -186.2732,58.25 -37.4883,31.61 -56.2265,73.6 -56.2265,125.99 0,58.7 21.2109,104.32 63.6718,136.83 42.4419,32.51 100.6989,48.77 174.7619,48.77 125.527,0 210.875,-49.68 256.051,-149.02 l -82.645,-40.64 c -15.363,36.11 -37.719,62.76 -67.058,79.93 -29.356,17.14 -67.055,25.74 -113.122,25.74 -46.964,0 -82.871,-8.6 -107.699,-25.74 -24.851,-17.17 -37.258,-41.55 -37.258,-73.16 0,-29.8 13.317,-53.98 39.969,-72.48 26.629,-18.52 72.481,-30.48 137.504,-35.895 80.375,-7.243 140.215,-26.883 179.504,-58.934 39.285,-32.07 58.93,-74.301 58.93,-126.66 0,-42.473 -12.196,-78.813 -36.578,-109.063 -24.383,-30.269 -56.899,-53.066 -97.54,-68.41 -40.644,-15.348 -84.457,-23.039 -131.41,-23.039 -61.425,0 -115.386,13.109 -161.89,39.289"
         style="fill:#ffffff;fill-opacity:1;fill-rule:nonzero;stroke:none"
         id="path16" /><path
         d="m 1171.08,1005.63 c -9.04,65.92 -31.16,115.36 -66.39,148.34 -35.22,32.96 -83.1,49.45 -143.596,49.45 -58.723,0 -106.817,-18.76 -144.281,-56.22 -37.489,-37.49 -61.2,-84.67 -71.125,-141.57 z m -55.55,239.79 c 46.06,-28.01 82.18,-66.17 108.38,-114.48 26.19,-48.33 39.29,-102.28 39.29,-161.893 0,-17.16 -0.47,-30.266 -1.35,-39.285 H 740.27 c 3.597,-65.024 24.828,-120.571 63.671,-166.633 38.825,-46.07 91.661,-69.09 158.504,-69.09 54.195,0 99.105,10.16 134.795,30.481 35.67,20.32 64.35,48.539 86.03,84.671 l 73.16,-48.769 c -29.81,-46.973 -69.1,-83.793 -117.87,-110.41 -48.77,-26.633 -106.58,-39.973 -173.404,-39.973 -61.429,0 -116.062,14.461 -163.922,43.352 -47.882,28.898 -85.351,69.097 -112.445,120.578 -27.094,51.48 -40.644,109.73 -40.644,174.765 0,65.026 13.316,123.276 39.964,174.756 26.633,51.48 63.676,91.65 111.09,120.57 47.418,28.9 101.371,43.35 161.895,43.35 56.896,0 108.376,-14.01 154.436,-41.99"
         style="fill:#ffffff;fill-opacity:1;fill-rule:nonzero;stroke:none"
         id="path18" /><path
         d="m 1807.36,726.551 c 33.87,21.668 60.28,51.929 79.25,90.769 18.97,38.821 28.45,82.629 28.45,131.414 0,48.762 -9.48,92.556 -28.45,131.406 -18.97,38.82 -45.38,69.09 -79.25,90.77 -33.87,21.67 -72.48,32.51 -115.83,32.51 -42.47,0 -80.4,-10.84 -113.8,-32.51 -33.42,-21.68 -59.61,-51.95 -78.57,-90.77 -18.97,-38.85 -28.46,-83.109 -28.46,-132.761 0,-48.77 9.49,-92.359 28.46,-130.738 18.96,-38.403 45.15,-68.422 78.57,-90.09 33.4,-21.672 71.33,-32.512 113.8,-32.512 43.35,0 81.96,10.84 115.83,32.512 z m 199.82,539.179 V 360.77 h -92.12 v 365.781 c -26.21,-37.051 -58.49,-65.699 -96.87,-86.031 -38.4,-20.309 -80.6,-30.481 -126.66,-30.481 -60.52,0 -114.48,14.461 -161.9,43.352 -47.41,28.898 -84.45,68.859 -111.09,119.898 -26.64,51.02 -39.96,109.063 -39.96,174.09 0,65.911 13.55,124.631 40.64,176.111 27.1,51.48 64.56,91.65 112.45,120.57 47.86,28.9 102.05,43.35 162.57,43.35 45.15,0 86.7,-10.16 124.63,-30.48 37.94,-20.32 69.98,-48.56 96.19,-84.67 v 93.47 h 92.12"
         style="fill:#ffffff;fill-opacity:1;fill-rule:nonzero;stroke:none"
         id="path20" /><path
         d="m 3234.91,726.551 c 33.86,21.668 60.29,51.929 79.25,90.769 18.97,38.821 28.45,82.629 28.45,131.414 0,48.762 -9.48,92.556 -28.45,131.406 -18.96,38.82 -45.39,69.09 -79.25,90.77 -33.87,21.67 -72.48,32.51 -115.83,32.51 -42.46,0 -80.4,-10.84 -113.8,-32.51 -33.42,-21.68 -59.61,-51.72 -78.58,-90.1 -18.96,-38.4 -28.44,-81.955 -28.44,-130.732 0,-49.68 9.48,-93.937 28.44,-132.758 18.97,-38.84 45.16,-69.101 78.58,-90.769 33.4,-21.672 71.34,-32.512 113.8,-32.512 43.35,0 81.96,10.84 115.83,32.512 z m -275.69,-73.16 c -47.88,28.898 -85.35,69.308 -112.45,121.25 -27.09,51.918 -40.64,110.41 -40.64,175.437 0,65.032 13.32,123.052 39.97,174.092 26.62,51.01 63.67,90.97 111.09,119.89 47.41,28.9 101.37,43.35 161.89,43.35 60.5,0 114.68,-14.45 162.57,-43.35 47.86,-28.92 85.34,-69.09 112.44,-120.57 27.09,-51.48 40.64,-109.73 40.64,-174.756 0,-65.035 -13.33,-123.285 -39.96,-174.765 -26.65,-51.481 -63.68,-91.68 -111.09,-120.578 -47.42,-28.891 -101.39,-43.352 -161.89,-43.352 -60.52,0 -114.71,14.461 -162.57,43.352"
         style="fill:#ffffff;fill-opacity:1;fill-rule:nonzero;stroke:none"
         id="path22" /><path
         d="m 4265.6,726.551 c 33.87,21.668 60.29,51.929 79.25,90.769 18.97,38.821 28.45,82.629 28.45,131.414 0,48.762 -9.48,92.556 -28.45,131.406 -18.96,38.82 -45.38,69.09 -79.25,90.77 -33.87,21.67 -72.48,32.51 -115.83,32.51 -42.46,0 -80.39,-10.84 -113.8,-32.51 -33.42,-21.68 -59.61,-51.72 -78.57,-90.1 -18.97,-38.4 -28.45,-81.955 -28.45,-130.732 0,-49.68 9.48,-93.937 28.45,-132.758 18.96,-38.84 45.15,-69.101 78.57,-90.769 33.41,-21.672 71.34,-32.512 113.8,-32.512 43.35,0 81.96,10.84 115.83,32.512 z m 199.82,539.179 V 631.719 h -92.12 v 93.48 c -26.21,-36.14 -58.25,-64.347 -96.19,-84.679 -37.93,-20.309 -79.48,-30.481 -124.63,-30.481 -60.52,0 -114.71,14.461 -162.57,43.352 -47.88,28.898 -85.34,69.097 -112.44,120.578 -27.09,51.48 -40.64,110.172 -40.64,176.109 0,65.032 13.31,123.052 39.96,174.092 26.63,51.01 63.67,90.97 111.09,119.89 47.41,28.9 101.37,43.35 161.89,43.35 46.06,0 88.27,-10.16 126.67,-30.48 38.37,-20.32 70.65,-49 96.86,-86.02 v 94.82 h 92.12"
         style="fill:#ffffff;fill-opacity:1;fill-rule:nonzero;stroke:none"
         id="path24" /><path
         d="m 3520.63,1509.9 c 0,63.17 -51.21,114.39 -114.38,114.39 -63.17,0 -114.38,-51.22 -114.38,-114.39 0,-63.17 51.21,-114.38 114.38,-114.38 63.17,0 114.38,51.21 114.38,114.38"
         style="fill:#f68d14;fill-opacity:1;fill-rule:nonzero;stroke:none"
         id="path26" /><path
         d="m 3746.78,652.219 c -0.01,1.281 -0.13,2.531 -0.37,3.742 l -82.71,841.469 -9.86,110.07 c -0.08,-0.59 -0.18,-1.19 -0.31,-1.8 l -0.51,5.41 c -2.53,7.66 -9.67,13.18 -18.07,13.18 -8.43,0 -15.56,-5.54 -18.08,-13.22 l -0.51,-5.37 c -0.12,0.61 -0.23,1.21 -0.31,1.8 l -9.86,-110.07 -82.66,-842.008 c -0.15,-0.863 -0.24,-1.742 -0.27,-2.633 0,-0.211 -0.01,-0.41 -0.01,-0.617 0,-10.652 8.53,-19.301 19.06,-19.301 h 185.4 c 10.53,0 19.07,8.649 19.07,19.301 0,0.019 0,0.039 0,0.047"
         style="fill:#f68d14;fill-opacity:1;fill-rule:nonzero;stroke:none"
         id="path28" /><path
         d="m 3749.39,1833.98 c 0,63.17 -51.21,114.38 -114.38,114.38 -63.17,0 -114.38,-51.21 -114.38,-114.38 0,-63.17 51.21,-114.38 114.38,-114.38 63.17,0 114.38,51.21 114.38,114.38"
         style="fill:#f68d14;fill-opacity:1;fill-rule:nonzero;stroke:none"
         id="path30" /><path
         d="m 3978.15,1605.22 c 0,63.17 -51.21,114.38 -114.38,114.38 -63.17,0 -114.38,-51.21 -114.38,-114.38 0,-63.17 51.21,-114.38 114.38,-114.38 63.17,0 114.38,51.21 114.38,114.38"
         style="fill:#f68d14;fill-opacity:1;fill-rule:nonzero;stroke:none"
         id="path32" /><path
         d="m 5536.9,654.539 c -47.88,28.902 -85.35,69.09 -112.44,120.582 -27.1,51.469 -40.64,109.738 -40.64,174.754 0,65.025 13.31,123.285 39.96,174.765 26.63,51.48 63.89,91.66 111.77,120.57 47.86,28.9 102.05,43.35 162.57,43.35 51.48,0 96.39,-11.07 134.79,-33.19 38.38,-22.14 73.37,-53.51 105,-94.15 l -67.74,-52.84 c -44.26,64.12 -101.61,96.19 -172.05,96.19 -42.47,0 -80.61,-10.84 -114.48,-32.52 -33.86,-21.67 -60.28,-51.94 -79.26,-90.76 -18.96,-38.84 -28.44,-82.642 -28.44,-131.415 0,-48.766 9.48,-92.586 28.44,-131.406 18.98,-38.848 45.4,-69.09 79.26,-90.77 33.87,-21.668 72.01,-32.508 114.48,-32.508 43.34,0 79.02,7.45 107.03,22.348 27.98,14.902 53.27,36.789 75.86,65.699 l 71.79,-50.117 c -29.8,-37.043 -66.61,-66.609 -110.41,-88.73 -43.82,-22.121 -90.99,-33.2 -141.56,-33.2 -61.44,0 -116.06,14.469 -163.93,43.348"
         style="fill:#7e8490;fill-opacity:1;fill-rule:nonzero;stroke:none"
         id="path34" /><path
         d="m 6417.06,727.699 c 33.87,21.68 60.28,51.922 79.26,90.77 18.96,38.82 28.45,82.64 28.45,131.406 0,48.773 -9.49,92.575 -28.45,131.415 -18.98,38.82 -45.39,69.09 -79.26,90.76 -33.87,21.68 -72.48,32.52 -115.83,32.52 -42.46,0 -80.39,-10.84 -113.8,-32.52 -33.42,-21.67 -59.61,-51.71 -78.57,-90.09 -18.97,-38.39 -28.45,-81.96 -28.45,-130.726 0,-49.683 9.48,-93.945 28.45,-132.765 18.96,-38.848 45.15,-69.09 78.57,-90.77 33.41,-21.668 71.34,-32.508 113.8,-32.508 43.35,0 81.96,10.84 115.83,32.508 z m -275.68,-73.16 c -47.88,28.902 -85.35,69.313 -112.45,121.25 -27.09,51.93 -40.64,110.41 -40.64,175.445 0,65.026 13.31,123.056 39.96,174.086 26.63,51.01 63.67,90.98 111.1,119.89 47.41,28.9 101.36,43.35 161.88,43.35 60.5,0 114.69,-14.45 162.57,-43.35 47.86,-28.91 85.35,-69.09 112.45,-120.57 27.09,-51.48 40.63,-109.74 40.63,-174.765 0,-65.016 -13.33,-123.285 -39.96,-174.754 -26.65,-51.492 -63.68,-91.68 -111.09,-120.582 -47.41,-28.879 -101.39,-43.348 -161.88,-43.348 -60.53,0 -114.71,14.469 -162.57,43.348"
         style="fill:#7e8490;fill-opacity:1;fill-rule:nonzero;stroke:none"
         id="path36" /><path
         d="m 7540.4,1226.92 c 38.82,-41.1 58.25,-97.77 58.25,-170.02 V 632.871 h -92.12 v 383.389 c 0,66.83 -12.66,114.92 -37.94,144.28 -25.29,29.34 -58.25,44.03 -98.89,44.03 -49.68,0 -88.28,-19.2 -115.83,-57.58 -27.56,-38.39 -43.58,-90.55 -48.09,-156.47 V 632.871 h -92.13 v 383.389 c 0,66.83 -12.65,114.92 -37.93,144.28 -25.29,29.34 -58.25,44.03 -98.89,44.03 -55.1,0 -96.42,-23.03 -123.96,-69.09 -27.56,-46.06 -41.32,-107.94 -41.32,-185.605 V 632.871 h -92.12 v 634.019 h 92.12 v -98.9 c 20.76,38.82 47.18,68.63 79.25,89.41 32.05,20.77 68.86,31.16 110.41,31.16 46.07,0 86.24,-12.42 120.58,-37.26 34.3,-24.84 58.25,-60.28 71.79,-106.34 19.86,45.15 46.96,80.38 81.29,105.67 34.31,25.28 74.05,37.93 119.21,37.93 58.7,0 107.47,-20.55 146.32,-61.64"
         style="fill:#7e8490;fill-opacity:1;fill-rule:nonzero;stroke:none"
         id="path38" /><path
         d="m 8161.81,727.699 c 33.4,21.68 59.61,51.922 78.57,90.77 18.97,38.82 28.45,83.082 28.45,132.765 0,48.766 -9.48,92.336 -28.45,130.726 -18.96,38.38 -45.17,68.42 -78.57,90.09 -33.43,21.68 -71.36,32.52 -113.81,32.52 -43.35,0 -81.96,-10.84 -115.83,-32.52 -33.87,-21.67 -60.29,-51.94 -79.25,-90.76 -18.96,-38.84 -28.45,-82.642 -28.45,-131.415 0,-48.766 9.49,-92.586 28.45,-131.406 18.96,-38.848 45.38,-69.09 79.25,-90.77 33.87,-21.668 72.48,-32.508 115.83,-32.508 42.45,0 80.38,10.84 113.81,32.508 z m 48.08,517.511 c 47.42,-28.91 84.45,-68.88 111.1,-119.89 26.62,-51.03 39.96,-109.06 39.96,-174.086 0,-65.933 -13.55,-124.644 -40.65,-176.113 -27.09,-51.492 -64.58,-91.68 -112.44,-120.582 -47.88,-28.879 -102.07,-43.348 -162.57,-43.348 -45.17,0 -86.7,10.161 -124.64,30.481 -37.93,20.316 -70,48.539 -96.18,84.68 v -93.481 h -92.13 v 983.539 h 92.13 v -444.36 c 26.18,37.03 58.46,65.71 96.87,86.03 38.38,20.32 80.6,30.48 126.66,30.48 60.51,0 114.48,-14.45 161.89,-43.35"
         style="fill:#7e8490;fill-opacity:1;fill-rule:nonzero;stroke:none"
         id="path40" /><path
         d="m 8480.83,632.871 v 634.019 h 92.12 V 632.871 Z m -6.09,778.969 c -14.02,14.44 -21.01,32.05 -21.01,52.84 0,19.85 6.99,36.79 21.01,50.8 13.98,13.99 31.36,21 52.15,21 19.86,0 37.03,-7.01 51.48,-21 14.44,-14.01 21.68,-31.39 21.68,-52.15 0,-19.88 -7.24,-37.05 -21.68,-51.49 -14.45,-14.45 -31.62,-21.67 -51.48,-21.67 -20.79,0 -38.17,7.22 -52.15,21.67"
         style="fill:#7e8490;fill-opacity:1;fill-rule:nonzero;stroke:none"
         id="path42" /><path
         d="m 9158.05,1261.47 c 37.47,-18.08 67.27,-44.71 89.41,-79.93 22.12,-35.22 33.19,-76.78 33.19,-124.64 V 632.871 h -92.12 v 383.389 c 0,125.53 -56.01,188.31 -167.98,188.31 -65.03,0 -113.8,-23.03 -146.32,-69.09 -32.51,-46.06 -48.77,-107.94 -48.77,-185.605 V 632.871 h -92.12 v 634.019 h 92.12 v -105.67 c 21.68,40.64 50.34,72.01 86.02,94.15 35.68,22.12 77,33.19 123.96,33.19 44.25,0 85.12,-9.04 122.61,-27.09"
         style="fill:#7e8490;fill-opacity:1;fill-rule:nonzero;stroke:none"
         id="path44" /><path
         d="m 9907.88,1006.78 c -9.04,65.92 -31.16,115.36 -66.39,148.34 -35.22,32.96 -83.1,49.45 -143.59,49.45 -58.73,0 -106.82,-18.75 -144.29,-56.22 -37.49,-37.49 -61.19,-84.67 -71.12,-141.57 z m -55.55,239.79 c 46.07,-28.01 82.18,-66.18 108.38,-114.48 26.18,-48.33 39.29,-102.28 39.29,-161.895 0,-17.168 -0.47,-30.265 -1.36,-39.285 h -521.57 c 3.59,-65.031 24.83,-120.57 63.67,-166.629 38.83,-46.062 91.66,-69.09 158.51,-69.09 54.19,0 99.11,10.161 134.79,30.481 35.68,20.316 64.36,48.539 86.03,84.668 l 73.15,-48.781 c -29.8,-46.957 -69.08,-83.77 -117.86,-110.411 -48.77,-26.617 -106.57,-39.957 -173.4,-39.957 -61.43,0 -116.06,14.469 -163.92,43.348 -47.88,28.902 -85.35,69.09 -112.44,120.582 -27.1,51.469 -40.65,109.738 -40.65,174.754 0,65.025 13.31,123.285 39.96,174.765 26.63,51.48 63.67,91.66 111.1,120.57 47.41,28.9 101.36,43.35 161.89,43.35 56.89,0 108.37,-14.01 154.43,-41.99"
         style="fill:#7e8490;fill-opacity:1;fill-rule:nonzero;stroke:none"
         id="path46" /><path
         d="m 4967.42,0 h -46.07 v 1948.36 h 46.07 V 0"
         style="fill:#7e8490;fill-opacity:1;fill-rule:nonzero;stroke:none"
         id="path48" /></g></g></svg>
